<?xml version="1.0" encoding="UTF-8" standalone="no"?>
<!-- Created with Inkscape (http://www.inkscape.org/) -->

<svg
   xmlns:dc="http://purl.org/dc/elements/1.1/"
   xmlns:cc="http://creativecommons.org/ns#"
   xmlns:rdf="http://www.w3.org/1999/02/22-rdf-syntax-ns#"
   xmlns:svg="http://www.w3.org/2000/svg"
   xmlns="http://www.w3.org/2000/svg"
   xmlns:sodipodi="http://sodipodi.sourceforge.net/DTD/sodipodi-0.dtd"
   xmlns:inkscape="http://www.inkscape.org/namespaces/inkscape"
   width="210mm"
   height="297mm"
   viewBox="0 0 210 297"
   version="1.1"
   id="svg8"
   inkscape:version="0.92.2 (5c3e80d, 2017-08-06)"
   sodipodi:docname="instinct-tony.svg"
   enable-background="new">
  <defs
     id="defs2" />
  <sodipodi:namedview
     id="base"
     pagecolor="#ffffff"
     bordercolor="#666666"
     borderopacity="1.0"
     inkscape:pageopacity="0.0"
     inkscape:pageshadow="2"
     inkscape:zoom="1.979899"
     inkscape:cx="345.86471"
     inkscape:cy="841.97092"
     inkscape:document-units="mm"
     inkscape:current-layer="layer1"
     showgrid="false"
     inkscape:window-width="1920"
     inkscape:window-height="1017"
     inkscape:window-x="-8"
     inkscape:window-y="-8"
     inkscape:window-maximized="1" />
  <metadata
     id="metadata5">
    <rdf:RDF>
      <cc:Work
         rdf:about="">
        <dc:format>image/svg+xml</dc:format>
        <dc:type
           rdf:resource="http://purl.org/dc/dcmitype/StillImage" />
        <dc:title />
      </cc:Work>
    </rdf:RDF>
  </metadata>
  <g
     inkscape:label="Layer 1"
     inkscape:groupmode="layer"
     id="layer1"
     style="opacity:0.95">
    <path
       inkscape:connector-curvature="0"
       class="cls-1"
       d="m 160.32111,80.292158 -3.70416,7.09084 -2.71463,0.75406 2.11667,-4.29948 -40.42304,11.31358 1.28323,-2.64583 z m -22.85205,35.824592 -37.33536,65.77542 -37.634337,-65.77542 -2.03729,-0.37042 8.29733,14.70819 -4.7625,-2.11667 36.136797,63.27775 35.82723,-63.2804 -4.7625,2.11667 8.30791,-14.70554 z m -54.858717,-21.468292 -1.28323,-2.64584 -41.69304,-11.71046 4.0587,7.61736 2.71463,0.75406 -2.47385,-4.826 z m 37.605237,5.931952 31.50922,-10.710332 -27.56693,19.819942 a 0.301625,0.301625 0 0 0 0.17462,0.54768 l 12.83229,0.0344 -20.18241,7.71525 a 0.301625,0.301625 0 0 0 -0.0291,0.55034 l 3.81529,1.93939 a 0.1508125,0.1508125 0 0 1 0,0.26459 l -20.20359,11.08603 a 0.904875,0.904875 0 0 1 -0.875773,0 L 79.797823,120.74166 a 0.1508125,0.1508125 0 0 1 0,-0.26458 l 3.81529,-1.9394 a 0.301625,0.301625 0 0 0 -0.0291,-0.55033 l -21.69584,-7.71525 13.13392,-0.0344 a 0.301625,0.301625 0 0 0 0.17462,-0.54768 l -27.55635,-19.819942 31.50658,10.710332 a 0.301625,0.301625 0 0 0 0.39688,-0.28575 v -1.637772 l 11.684,7.731132 -8.17563,8.52223 10.55688,-2.29923 1.13241,4.52437 3.31788,-5.29166 -2.79136,2.33891 -0.47889,-2.91041 a 0.301625,0.301625 0 0 0 -0.34131,-0.24871 l -7.05909,1.05833 5.6515,-5.6171 a 0.4524375,0.4524375 0 0 0 -0.0582,-0.69056 l -9.92981,-7.003532 8.636,2.198692 a 0.301625,0.301625 0 0 0 0.33338,-0.40216 l -1.50813,-3.532192 4.15396,2.667 a 0.301625,0.301625 0 0 0 0.44979,-0.34925 l -5.74146,-17.17411 10.371674,15.08125 10.530423,-15.08125 -5.72294,17.16352 a 0.301625,0.301625 0 0 0 0.44979,0.34925 l 4.14338,-2.667 -1.2065,3.230572 a 0.301625,0.301625 0 0 0 0.33866,0.4101 l 8.33438,-1.587502 -9.92982,6.699252 a 0.4524375,0.4524375 0 0 0 -0.0582,0.69056 l 5.6515,5.61711 -7.05908,-1.05834 a 0.301625,0.301625 0 0 0 -0.34131,0.24871 l -0.4789,2.91042 -2.79135,-2.33892 3.31787,5.29167 1.13242,-4.52438 10.55952,2.29923 -8.1915,-8.52487 11.37708,-7.731132 v 1.637772 a 0.301625,0.301625 0 0 0 0.41275,0.28575 z m -18.78542,7.34219 a 5.5218542,5.5218542 0 0 1 -1.571633,-1.75948 5.5218542,5.5218542 0 0 1 -1.571624,1.75948 l 1.799177,19.66119 z m 9.00906,31.10706 10.92729,2.74109 -16.33008,-9.69963 -4.318,2.29129 a 1.2065,1.2065 0 0 1 -1.158873,-0.0159 l -4.024324,-2.27541 -16.33008,9.8425 10.94581,-2.64584 a 0.4524375,0.4524375 0 0 1 0.51329,0.63765 l -4.18041,8.6016 9.04346,-5.83935 a 0.4524375,0.4524375 0 0 1 0.68527,0.26458 l 4.233337,17.59479 4.32329,-17.52864 a 0.4524375,0.4524375 0 0 1 0.69056,-0.26459 l 8.92969,5.94255 -4.46617,-8.99584 a 0.4524375,0.4524375 0 0 1 0.51594,-0.65087 z"
       id="path17"
       style="opacity:1;fill:none;fill-opacity:1;stroke:#f8f400;stroke-width:0.465;stroke-miterlimit:4;stroke-dasharray:none;stroke-dashoffset:0;stroke-opacity:1" />
    <path
       sodipodi:type="star"
       style="opacity:1;fill:none;fill-opacity:1;stroke:#e10000;stroke-width:0.684;stroke-miterlimit:4;stroke-dasharray:none;stroke-dashoffset:0;stroke-opacity:1"
       id="path838"
       sodipodi:sides="3"
       sodipodi:cx="99.974701"
       sodipodi:cy="-106.52845"
       sodipodi:r1="102.71556"
       sodipodi:r2="51.357784"
       sodipodi:arg1="0.52359878"
       sodipodi:arg2="1.5707963"
       inkscape:flatsided="false"
       inkscape:rounded="0"
       inkscape:randomized="0"
       d="m 188.92899,-55.170669 -88.954288,3e-6 -88.954286,-4e-6 44.477138,-77.03667 44.477147,-77.03667 44.477149,77.03667 z"
       inkscape:transform-center-y="25.678891"
       transform="scale(1,-1)" />
    <text
       xml:space="preserve"
       style="font-style:normal;font-variant:normal;font-weight:normal;font-stretch:normal;font-size:10.58333302px;line-height:1.25;font-family:'Thunder Titan Engraved';-inkscape-font-specification:'Thunder Titan Engraved';letter-spacing:0px;word-spacing:0px;fill:#000000;fill-opacity:1;stroke:none;stroke-width:0.26458332"
       x="55.458424"
       y="27.057775"
       id="text1447"><tspan
         sodipodi:role="line"
         id="tspan1445"
         x="55.458424"
         y="37.008408"
         style="font-style:normal;font-variant:normal;font-weight:normal;font-stretch:normal;font-family:'Thunder Titan Engraved';-inkscape-font-specification:'Thunder Titan Engraved';stroke-width:0.26458332" /></text>
    <text
       xml:space="preserve"
       style="font-style:normal;font-variant:normal;font-weight:normal;font-stretch:normal;font-size:10.58333302px;line-height:1.25;font-family:'Thunder Titan Engraved';-inkscape-font-specification:'Thunder Titan Engraved';letter-spacing:0px;word-spacing:0px;fill:#000000;fill-opacity:1;stroke:none;stroke-width:0.26458332"
       x="55.458424"
       y="22.246925"
       id="text1451"><tspan
         sodipodi:role="line"
         id="tspan1449"
         x="55.458424"
         y="32.197559"
         style="font-style:normal;font-variant:normal;font-weight:normal;font-stretch:normal;font-family:'Thunder Titan Engraved';-inkscape-font-specification:'Thunder Titan Engraved';stroke-width:0.26458332" /></text>
    <g
       aria-label="Tony Thunder"
       style="font-style:normal;font-variant:normal;font-weight:normal;font-stretch:normal;font-size:10.58333302px;line-height:1.25;font-family:'Thunder Titan';-inkscape-font-specification:'Thunder Titan';letter-spacing:0px;word-spacing:0px;fill:#000000;fill-opacity:1;stroke:none;stroke-width:0.26458332"
       id="text1455">
      <path
         d="m 52.209141,63.052619 -3.354917,7.609417 h 0.08467 l 0.22225,0.22225 h 0.359833 l -2.614083,3.725333 0.550333,-2.434167 -0.232833,-0.232833 0.02117,-0.05292 h -0.5715 l 0.98425,-2.25425 -0.232834,-0.232833 0.03175,-0.05292 h -0.9525 l 2.677584,-6.011333 -0.232834,-0.22225 0.03175,-0.0635 h -0.740833 l -0.772583,-2.148416 h 5.990166 l 0.560917,1.439333 -0.328084,0.709083 z m -5.61975,-2.878666 1.17475,3.386666 h 0.05292 l 0.22225,0.22225 h 0.02117 l 0.02117,0.02117 -2.677583,6.053666 h 0.08467 l 0.22225,0.22225 h 0.15875 l 0.116417,0.116417 h 0.04233 l 0.22225,0.22225 h 0.1905 l -0.867833,1.979083 h 0.08467 l 0.22225,0.22225 h 0.15875 l 0.116416,0.116417 h 0.04233 l 0.22225,0.22225 h 0.0635 l -0.687917,3.069166 0.137583,0.07408 0.15875,0.15875 0.05292,0.03175 0.137583,0.137583 0.07408,0.03175 0.1905,0.1905 0.433916,0.1905 4.1275,-5.894916 -0.232833,-0.232834 0.02117,-0.02117 -0.105834,-0.105834 0.127,-0.148166 -0.232833,-0.232834 0.04233,-0.05292 h -0.28575 l 2.677583,-6.0325 h 1.513417 l 0.486833,-1.132417 -0.814916,-2.106083 -0.201084,-0.1905 -0.02117,-0.07408 -0.09525,-0.08467 -0.01058,-0.07408 -0.211666,-0.211667 -0.02117,-0.07408 z m 7.186083,3.005666 0.381,-0.836083 -0.6985,-1.788583 h -6.371166 l 0.941916,2.624666 h 0.751417 l -2.794,6.297083 h 1.27 l -1.100667,2.54 h 0.931334 l -0.846667,3.77825 3.672417,-5.259916 h -0.85725 l 3.238499,-7.355417 z m -5.916083,0.254 -1.090083,-3.132666 h 6.879166 l 0.02117,0.07408 0.306916,0.306917 0.79375,2.042583 -0.455083,1.04775 h -1.513417 l -2.878666,6.50875 h 0.529167 l -0.0635,0.07408 0.34925,0.34925 -4.042834,5.767916 -0.359833,-0.15875 -0.296333,-0.296333 -0.09525,-0.05292 0.762,-3.354916 h -0.508 l -0.338667,-0.338667 h -0.08467 l 0.9525,-2.201333 h -0.6985 l -0.338666,-0.338667 h -0.08467 l 2.624667,-5.958416 -0.3175,-0.338667 z"
         style="font-style:normal;font-variant:normal;font-weight:normal;font-stretch:normal;font-family:'Thunder Titan Engraved';-inkscape-font-specification:'Thunder Titan Engraved';letter-spacing:0.079375px;stroke-width:0.26458332"
         id="path1457" />
      <path
         d="m 56.811733,60.322119 -2.921,6.604 0.772583,2.032 h 0.05292 l 0.338667,0.338667 h 6.656916 l 2.921,-6.57225 -0.783167,-2.021417 -0.306916,-0.306916 -0.02117,-0.07408 z m 4.360333,8.382 H 54.83265 l -0.66675,-1.767417 2.815166,-6.360583 h 6.35 l 0.687917,1.767417 z m -2.286,-2.688167 1.23825,-2.836333 h -0.772583 l -1.23825,2.836333 z m -5.122333,0.899584 2.963333,-6.720417 h 6.88975 l 0.02117,0.07408 0.211666,0.211666 0.01058,0.07408 0.09525,0.08467 0.02117,0.07408 0.201084,0.1905 0.804333,2.084916 -2.95275,6.656917 H 55.27715 l -0.22225,-0.22225 h -0.04233 L 54.89615,69.307369 h -0.04233 l -0.22225,-0.22225 h -0.05292 z m 0.751417,0.28575 0.518583,1.375833 H 61.0874 l 2.793999,-6.223 -0.550333,-1.42875 h -6.0325 z m 5.81025,-4.148667 -0.03175,0.0635 0.232833,0.22225 -1.322917,3.026833 h -0.98425 l -0.22225,-0.22225 H 57.9124 l 1.354666,-3.090333 z"
         style="font-style:normal;font-variant:normal;font-weight:normal;font-stretch:normal;font-family:'Thunder Titan Engraved';-inkscape-font-specification:'Thunder Titan Engraved';letter-spacing:0.079375px;stroke-width:0.26458332"
         id="path1459" />
      <path
         d="m 70.202626,63.052619 h -1.058333 l -2.465917,5.5245 H 63.76796 l 2.561166,-5.74675 -0.677333,-1.905 h 7.545917 l 0.53975,1.407584 -2.76225,6.244166 h -2.921 l 2.3495,-5.23875 -0.232834,-0.22225 z m 3.52425,-2.57175 -0.211666,-0.211666 -0.02117,-0.07408 H 64.75221 l 0.79375,2.360084 -2.878667,6.529916 h 0.08467 l 0.22225,0.22225 h 0.15875 l 0.116417,0.116417 h 0.04233 l 0.22225,0.22225 h 4.106333 l 0.04233,-0.137584 0.137584,0.137584 h 4.09575 l 2.95275,-6.656917 -0.79375,-2.084916 -0.201084,-0.1905 -0.02117,-0.07408 -0.09525,-0.08467 z m -4.497916,2.69875 h 0.772583 l -2.465917,5.5245 h 3.52425 l 2.82575,-6.360583 -0.677333,-1.767417 h -7.9375 l 0.709084,1.989667 -2.7305,6.138333 h 3.513666 z m -1.926167,6.117167 H 63.29171 l -0.338667,-0.338667 h -0.08467 l 2.82575,-6.402916 -0.762,-2.233084 h 8.466666 l 0.02117,0.07408 0.306916,0.306916 0.772584,2.021417 -2.921,6.57225 h -4.0005 l -0.201084,-0.201084 z"
         style="font-style:normal;font-variant:normal;font-weight:normal;font-stretch:normal;font-family:'Thunder Titan Engraved';-inkscape-font-specification:'Thunder Titan Engraved';letter-spacing:0.079375px;stroke-width:0.26458332"
         id="path1461" />
      <path
         d="m 75.931186,68.577119 1.17475,-2.614083 -0.232834,-0.22225 0.03175,-0.0635 h -1.037166 l -0.3175,-1.375834 0.656166,-1.471083 -0.6985,-1.905 h 4.455584 l -1.42875,3.27025 h 0.08467 l 0.22225,0.22225 h 0.994834 l 1.513416,-3.4925 h 1.9685 l 0.3175,1.407584 -1.49225,3.344333 h -2.00025 l -1.280583,2.899833 z m -0.645584,0.73025 0.116417,0.116417 h 0.04233 l 0.22225,0.22225 h 4.138084 l 1.248833,-2.899834 h 2.032 l 1.651,-3.757083 -0.455084,-2.042583 -0.211666,-0.211667 -0.01058,-0.05292 -0.127,-0.105834 v -0.09525 l -0.22225,-0.211666 v -0.07408 h -9.080499 l 0.79375,2.370667 -0.592667,1.449916 0.433917,2.169584 h 0.0635 l 0.22225,0.22225 h 0.07408 l 0.116417,0.116416 h 0.04233 l 0.116417,0.116417 -1.0795,2.44475 h 0.08467 l 0.22225,0.22225 z m 0.3175,-3.503083 h 1.100667 l -1.30175,2.899833 h 3.545417 l 1.280583,-2.899833 h 2.00025 l 1.545166,-3.46075 -0.402166,-1.767417 h -2.338917 l -1.513416,3.4925 h -0.783167 l 1.513417,-3.4925 h -5.122334 l 0.73025,1.989667 -0.656166,1.471083 z m -0.497416,3.153833 h -0.08467 l 1.121833,-2.561167 h -0.359833 l -0.338667,-0.338666 h -0.0635 l -0.423333,-2.042584 0.613833,-1.460499 -0.762,-2.233084 h 5.842 l -0.03175,0.08467 0.15875,0.137583 0.08467,-0.22225 h 2.7305 l 0.01058,0.08467 0.328083,0.3175 0.4445,2.010833 -1.608666,3.661833 h -2.032 l -1.248833,2.899834 h -4.042834 z"
         style="font-style:normal;font-variant:normal;font-weight:normal;font-stretch:normal;font-family:'Thunder Titan Engraved';-inkscape-font-specification:'Thunder Titan Engraved';letter-spacing:0.079375px;stroke-width:0.26458332"
         id="path1463" />
      <path
         d="m 93.967831,63.052619 -3.354917,7.609417 h 0.08467 l 0.22225,0.22225 h 0.359833 l -2.614083,3.725333 0.550333,-2.434167 -0.232833,-0.232833 0.02117,-0.05292 h -0.571499 l 0.984249,-2.25425 -0.232833,-0.232833 0.03175,-0.05292 h -0.9525 l 2.677583,-6.011333 -0.232833,-0.22225 0.03175,-0.0635 h -0.740833 l -0.772584,-2.148416 h 5.990167 l 0.560917,1.439333 -0.328084,0.709083 z m -5.61975,-2.878666 1.17475,3.386666 h 0.05292 l 0.22225,0.22225 h 0.02117 l 0.02117,0.02117 -2.677583,6.053666 h 0.08467 l 0.22225,0.22225 h 0.15875 l 0.116417,0.116417 h 0.04233 l 0.22225,0.22225 h 0.1905 l -0.867833,1.979083 h 0.08467 l 0.22225,0.22225 h 0.15875 l 0.116416,0.116417 h 0.04233 l 0.22225,0.22225 h 0.0635 l -0.687917,3.069166 0.137583,0.07408 0.15875,0.15875 0.05292,0.03175 0.137583,0.137583 0.07408,0.03175 0.1905,0.1905 0.433916,0.1905 4.1275,-5.894916 -0.232833,-0.232834 0.02117,-0.02117 -0.105833,-0.105834 0.127,-0.148166 -0.232833,-0.232834 0.04233,-0.05292 h -0.28575 l 2.677583,-6.0325 h 1.513417 l 0.486833,-1.132417 -0.814916,-2.106083 -0.201084,-0.1905 -0.02117,-0.07408 -0.09525,-0.08467 -0.01058,-0.07408 -0.211666,-0.211667 -0.02117,-0.07408 z m 7.186083,3.005666 0.381,-0.836083 -0.6985,-1.788583 h -6.371166 l 0.941916,2.624666 h 0.751417 l -2.794,6.297083 h 1.27 l -1.100667,2.54 h 0.931334 l -0.846667,3.77825 3.672416,-5.259916 h -0.85725 l 3.2385,-7.355417 z m -5.916083,0.254 -1.090083,-3.132666 h 6.879166 l 0.02117,0.07408 0.306916,0.306917 0.79375,2.042583 -0.455083,1.04775 h -1.513417 l -2.878666,6.50875 h 0.529166 l -0.0635,0.07408 0.34925,0.34925 -4.042833,5.767916 -0.359833,-0.15875 -0.296333,-0.296333 -0.09525,-0.05292 0.762,-3.354916 h -0.508 l -0.338667,-0.338667 h -0.08467 l 0.9525,-2.201333 h -0.6985 l -0.338666,-0.338667 h -0.08467 l 2.624666,-5.958416 -0.3175,-0.338667 z"
         style="font-style:normal;font-variant:normal;font-weight:normal;font-stretch:normal;font-family:'Thunder Titan Engraved';-inkscape-font-specification:'Thunder Titan Engraved';letter-spacing:0.079375px;stroke-width:0.26458332"
         id="path1465" />
      <path
         d="m 95.649422,68.577119 2.561167,-5.74675 -0.677334,-1.905 h 4.445005 l -1.23825,2.804583 h 0.0847 l 0.22225,0.22225 h 0.98425 l 1.3335,-3.026833 h 1.72509 l 0.53975,1.407584 -2.76225,6.244166 h -2.931588 l 1.386418,-3.07975 -0.23283,-0.22225 0.0318,-0.0635 h -1.05834 l -1.502831,3.3655 z m 9.958918,-8.09625 -0.21167,-0.211666 -0.0212,-0.07408 h -8.741838 l 0.79375,2.360084 -2.878667,6.529916 h 0.08467 l 0.22225,0.22225 h 0.15875 l 0.116417,0.116417 h 0.04233 l 0.22225,0.22225 h 4.106333 l 0.04233,-0.137584 0.137583,0.137584 h 4.106338 l 2.95275,-6.656917 -0.80434,-2.084916 -0.20108,-0.1905 -0.0212,-0.07408 -0.0952,-0.08467 z m -6.963835,8.22325 1.502835,-3.3655 h 0.77258 l -1.502831,3.3655 h 3.534831 l 2.82575,-6.360583 -0.68791,-1.767417 h -2.04259 l -1.3335,3.026833 h -0.77258 l 1.3335,-3.026833 h -5.122335 l 0.709084,1.989667 -2.7305,6.138333 z m 0.53975,0.592667 h -4.011083 l -0.338667,-0.338667 h -0.08467 l 2.82575,-6.402916 -0.762,-2.233084 h 5.863171 l -0.0318,0.08467 0.14816,0.127 0.0847,-0.211667 h 2.40242 l 0.0212,0.07408 0.30692,0.306916 0.78317,2.021417 -2.921,6.57225 h -4.011088 l -0.201083,-0.201084 z"
         style="font-style:normal;font-variant:normal;font-weight:normal;font-stretch:normal;font-family:'Thunder Titan Engraved';-inkscape-font-specification:'Thunder Titan Engraved';letter-spacing:0.079375px;stroke-width:0.26458332"
         id="path1467" />
      <path
         d="m 106.69082,60.322119 0.762,2.233084 -1.92617,4.370916 0.77258,2.032 h 0.0529 l 0.33867,0.338667 h 6.65691 l 2.921,-6.57225 -0.77258,-2.021417 -0.30692,-0.306916 -0.0212,-0.07408 h -2.42359 l -0.0847,0.22225 -0.14817,-0.148166 0.0212,-0.07408 z m -0.22225,8.382 -0.66675,-1.767417 1.93675,-4.370916 -0.70909,-1.989667 h 5.12234 l -2.40242,5.439833 h 0.78317 l 2.38125,-5.439833 h 2.06375 l 0.67733,1.767417 -2.84692,6.360583 z m -0.254,0.381 -0.81492,-2.169583 1.905,-4.360333 -0.79375,-2.360084 h 8.75242 l 0.0212,0.07408 0.21167,0.211666 0.0106,0.07408 0.0952,0.08467 0.0212,0.07408 0.20108,0.1905 0.79375,2.084916 -2.95275,6.656917 h -6.75216 l -0.22225,-0.22225 h -0.0423 l -0.11641,-0.116417 h -0.0423 l -0.22225,-0.22225 z m 1.87325,-6.25475 -1.93675,4.370917 0.51858,1.375833 h 6.05367 l 2.794,-6.223 -0.55034,-1.42875 h -1.73566 l -2.38125,5.439833 h -0.99484 l -0.22225,-0.22225 h -0.0847 l 2.30716,-5.217583 h -4.445 z"
         style="font-style:normal;font-variant:normal;font-weight:normal;font-stretch:normal;font-family:'Thunder Titan Engraved';-inkscape-font-specification:'Thunder Titan Engraved';letter-spacing:0.079375px;stroke-width:0.26458332"
         id="path1469" />
      <path
         d="m 121.83854,63.052619 h -1.05833 l -2.46592,5.5245 h -2.91041 l 2.56116,-5.74675 -0.67733,-1.905 h 7.54592 l 0.53975,1.407584 -2.76225,6.244166 h -2.921 l 2.3495,-5.23875 -0.23284,-0.22225 z m 3.52425,-2.57175 -0.21166,-0.211666 -0.0212,-0.07408 h -8.74183 l 0.79375,2.360084 -2.87867,6.529916 h 0.0847 l 0.22225,0.22225 h 0.15875 l 0.11641,0.116417 h 0.0423 l 0.22225,0.22225 h 4.10633 l 0.0423,-0.137584 0.13759,0.137584 h 4.09575 l 2.95275,-6.656917 -0.79375,-2.084916 -0.20109,-0.1905 -0.0212,-0.07408 -0.0953,-0.08467 z m -4.49791,2.69875 h 0.77258 l -2.46592,5.5245 h 3.52425 l 2.82575,-6.360583 -0.67733,-1.767417 h -7.9375 l 0.70908,1.989667 -2.7305,6.138333 h 3.51367 z m -1.92617,6.117167 h -4.01108 l -0.33867,-0.338667 h -0.0847 l 2.82575,-6.402916 -0.762,-2.233084 h 8.46667 l 0.0212,0.07408 0.30691,0.306916 0.77259,2.021417 -2.921,6.57225 h -4.0005 l -0.20109,-0.201084 z"
         style="font-style:normal;font-variant:normal;font-weight:normal;font-stretch:normal;font-family:'Thunder Titan Engraved';-inkscape-font-specification:'Thunder Titan Engraved';letter-spacing:0.079375px;stroke-width:0.26458332"
         id="path1471" />
      <path
         d="m 129.38744,66.142952 0.22225,0.22225 h 0.99483 l 1.32292,-3.026833 -0.23283,-0.22225 0.0317,-0.0635 h -1.06892 l -1.35467,3.090333 z m -4.10633,2.434167 2.56116,-5.74675 -0.67733,-1.905 h 7.5565 l 0.53975,1.407584 -2.76225,6.244166 z m -0.635,0.73025 0.11641,0.116417 h 0.0423 l 0.22225,0.22225 h 8.39258 l 2.95275,-6.656917 -0.79375,-2.084916 -0.20108,-0.1905 -0.0212,-0.07408 -0.0952,-0.08467 -0.0106,-0.07408 -0.21167,-0.211666 -0.0212,-0.07408 h -8.75241 l 0.79375,2.360084 -2.87867,6.529916 h 0.0847 l 0.22225,0.22225 z m 5.64091,-3.291417 h -0.78316 l 1.23825,-2.836333 h 0.78316 z m -3.50308,-5.439833 0.70908,1.989667 -2.7305,6.138333 h 7.82109 l 2.82575,-6.360583 -0.67734,-1.767417 z m -2.31775,8.382 h -0.0847 l 2.82575,-6.402916 -0.762,-2.233084 h 8.47725 l 0.0212,0.07408 0.30692,0.306916 0.77258,2.021417 -2.921,6.57225 h -8.29733 z"
         style="font-style:normal;font-variant:normal;font-weight:normal;font-stretch:normal;font-family:'Thunder Titan Engraved';-inkscape-font-specification:'Thunder Titan Engraved';letter-spacing:0.079375px;stroke-width:0.26458332"
         id="path1473" />
      <path
         d="m 142.43967,65.846619 0.0106,-0.04233 h 0.51858 l 0.68792,-1.5875 -0.34925,-0.3175 0.0317,-0.08467 h -2.2225 l 0.0106,-0.04233 h 2.74109 l 0.45508,-1.04775 -0.79375,-2.021417 -0.30692,-0.306916 -0.0212,-0.07408 h -6.87917 l 0.762,2.233084 -2.82575,6.402916 h 0.0847 l 0.33866,0.338667 h 6.74159 l 1.36525,-3.132667 z m -1.55575,2.8575 h -6.24417 l 2.7305,-6.138333 -0.73025,-1.989667 h 6.37117 l 0.6985,1.767417 -0.381,0.836083 h -2.70934 l -0.37041,0.889 h 2.68816 l -0.508,1.143 h -2.70933 l -0.33867,0.804333 h 2.68817 z m -5.97959,0.941917 -0.22225,-0.22225 h -0.0423 l -0.11642,-0.116417 h -0.15875 l -0.22225,-0.22225 h -0.0847 l 2.87866,-6.529916 -0.79375,-2.360084 h 7.15434 l 0.0212,0.07408 0.21167,0.211666 0.0106,0.07408 0.0952,0.08467 0.0212,0.07408 0.20108,0.1905 0.81492,2.084916 -0.48683,1.132417 H 143.752 l 0.0635,0.05292 -0.0212,0.04233 0.23284,0.22225 -0.74084,1.7145 h -0.35983 v 0.01058 l 0.23283,0.22225 -1.41816,3.259667 z m 5.461,-5.228167 -0.22225,-0.22225 h -0.0847 l 0.47625,-1.143 h 2.70933 l 0.32808,-0.709083 -0.56091,-1.418167 H 137.021 l 0.6985,1.905 -2.56117,5.74675 h 5.64092 l 0.97367,-2.211917 h -2.27542 l -0.22225,-0.22225 h -0.0847 l 0.45509,-1.058333 h 2.69875 l 0.29633,-0.66675 z"
         style="font-style:normal;font-variant:normal;font-weight:normal;font-stretch:normal;font-family:'Thunder Titan Engraved';-inkscape-font-specification:'Thunder Titan Engraved';letter-spacing:0.079375px;stroke-width:0.26458332"
         id="path1475" />
      <path
         d="m 149.88868,63.052619 h -1.04775 l -0.47625,1.143 h 0.0847 l 0.22225,0.22225 h 0.96309 l 0.45508,-1.0795 -0.23283,-0.22225 z m -0.92075,2.0955 0.0318,-0.0635 h -1.05834 l -1.56633,3.4925 h -2.91042 l 2.56117,-5.74675 -0.67733,-1.905 h 7.54591 l 0.55034,1.407584 -0.78317,1.777999 -1.9685,1.407584 h 0.127 l 0.22225,0.22225 h 0.889 l -1.24883,2.836333 h -2.921 l 1.43933,-3.20675 z m -6.13834,4.15925 0.11642,0.116417 h 0.0423 l 0.22225,0.22225 h 4.10634 l 0.0423,-0.137584 0.13758,0.137584 h 4.10634 l 1.7145,-3.884084 -0.23284,-0.22225 0.0212,-0.04233 -0.0635,-0.05292 0.58208,-0.423333 0.92075,-2.032 -0.79375,-2.084916 -0.20108,-0.1905 -0.0212,-0.07408 -0.0952,-0.08467 -0.0106,-0.07408 -0.21167,-0.211666 -0.0212,-0.07408 h -8.74184 l 0.79375,2.360084 -2.87866,6.529916 h 0.0847 l 0.22225,0.22225 z m 6.096,-6.12775 h 0.77259 l -0.37042,0.889 h -0.77258 z m -3.95816,-2.6035 0.70908,1.989667 -2.7305,6.138333 h 3.51367 l 1.56633,-3.4925 h 0.77258 l -1.56633,3.4925 h 3.53483 l 1.4605,-3.312583 h -1.15358 l 1.69333,-1.2065 0.81492,-1.8415 -0.67733,-1.767417 z m -2.31775,8.382 h -0.0847 l 2.82575,-6.402916 -0.762,-2.233084 h 8.46667 l 0.0212,0.07408 0.30692,0.306916 0.77258,2.021417 -0.89958,1.989666 -0.6985,0.508 0.34925,0.3175 -1.66158,3.757084 h -4.01109 l -0.20108,-0.201084 -0.0741,0.201084 h -4.01109 z"
         style="font-style:normal;font-variant:normal;font-weight:normal;font-stretch:normal;font-family:'Thunder Titan Engraved';-inkscape-font-specification:'Thunder Titan Engraved';letter-spacing:0.079375px;stroke-width:0.26458332"
         id="path1477" />
    </g>
  </g>
</svg>
