<?xml version="1.0" encoding="UTF-8" standalone="no"?>
<!-- Created with Inkscape (http://www.inkscape.org/) -->

<svg
   xmlns:dc="http://purl.org/dc/elements/1.1/"
   xmlns:cc="http://creativecommons.org/ns#"
   xmlns:rdf="http://www.w3.org/1999/02/22-rdf-syntax-ns#"
   xmlns:svg="http://www.w3.org/2000/svg"
   xmlns="http://www.w3.org/2000/svg"
   xmlns:sodipodi="http://sodipodi.sourceforge.net/DTD/sodipodi-0.dtd"
   xmlns:inkscape="http://www.inkscape.org/namespaces/inkscape"
   width="210mm"
   height="297mm"
   viewBox="0 0 210 297"
   version="1.1"
   id="svg4524"
   inkscape:version="0.92.2 (5c3e80d, 2017-08-06)"
   sodipodi:docname="mysitc-sushi.svg">
  <defs
     id="defs4518">
    <linearGradient
       id="linear-gradient"
       x1="197.78"
       y1="417.5"
       x2="197.78"
       gradientUnits="userSpaceOnUse">
      <stop
         offset="0"
         stop-color="#09092b"
         id="stop4" />
      <stop
         offset="0.22"
         stop-color="#0c0c35"
         id="stop6" />
      <stop
         offset="0.62"
         stop-color="#111042"
         id="stop8" />
      <stop
         offset="1"
         stop-color="#121146"
         id="stop10" />
    </linearGradient>
  </defs>
  <sodipodi:namedview
     id="base"
     pagecolor="#ffffff"
     bordercolor="#666666"
     borderopacity="1.0"
     inkscape:pageopacity="0.0"
     inkscape:pageshadow="2"
     inkscape:zoom="2.8"
     inkscape:cx="374.87166"
     inkscape:cy="700.87102"
     inkscape:document-units="mm"
     inkscape:current-layer="layer1"
     showgrid="false"
     inkscape:window-width="1920"
     inkscape:window-height="1017"
     inkscape:window-x="-8"
     inkscape:window-y="-8"
     inkscape:window-maximized="1"
     showguides="false"
     inkscape:guide-bbox="true">
    <sodipodi:guide
       position="104.558,29.079871"
       orientation="1,0"
       id="guide861"
       inkscape:locked="false" />
    <sodipodi:guide
       position="42.228584,200.18488"
       orientation="1,0"
       id="guide863"
       inkscape:locked="false" />
    <sodipodi:guide
       position="168.64707,111.71867"
       orientation="1,0"
       id="guide865"
       inkscape:locked="false" />
    <sodipodi:guide
       position="10.690781,65.481036"
       orientation="0,1"
       id="guide867"
       inkscape:locked="false" />
  </sodipodi:namedview>
  <metadata
     id="metadata4521">
    <rdf:RDF>
      <cc:Work
         rdf:about="">
        <dc:format>image/svg+xml</dc:format>
        <dc:type
           rdf:resource="http://purl.org/dc/dcmitype/StillImage" />
        <dc:title />
      </cc:Work>
    </rdf:RDF>
  </metadata>
  <g
     inkscape:label="Layer 1"
     inkscape:groupmode="layer"
     id="layer1">
    <path
       inkscape:connector-curvature="0"
       class="cls-1"
       d="m 104.53374,165.05127 -3.9529,-7.46717 3.9502,-9.26463 3.43357,9.26463 z m -10.984111,-9.59295 2.39755,6.1325 7.765851,4.0067 -4.523336,-7.6017 z M 81.978883,214.70317 70.677236,202.39516 v -28.73309 l -5.354829,-8.6108 v 34.85212 l 14.479565,16.02683 z M 68.180105,160.28038 c 2.289934,0.53816 8.341699,1.66293 8.664602,1.71677 0.322905,0.0538 1.035979,0.60005 0.08075,0.53818 -0.955258,-0.062 -8.906776,-0.87186 -9.342702,-0.91761 -0.435916,-0.0458 -0.807261,0.0806 -0.600063,0.76422 0.207201,0.68348 2.233429,3.81566 2.421781,4.11433 0.188354,0.29869 0.191062,0.46284 1.662963,0.51664 1.471906,0.0538 6.67066,0.30678 6.942443,0.33368 0.271774,0.0268 1.784045,0.10229 0.777651,0.34711 -1.006382,0.24488 -6.662586,1.47191 -7.227663,1.66295 -0.565086,0.19113 -0.84494,0.29872 -0.600063,0.87186 0.244868,0.57315 1.96164,2.64244 2.179598,2.86038 0.217967,0.21799 0.626975,0.29869 2.206509,-0.16404 1.579546,-0.46281 6.404274,-1.85401 6.813279,-2.01544 0.409014,-0.1614 1.035989,-0.19113 0.538176,0.11032 -0.497811,0.30136 -6.320846,3.46046 -6.702952,3.67842 -0.382104,0.218 -0.807261,0.35518 -0.382104,0.84492 0.425156,0.48974 1.883602,1.41809 2.263024,1.71679 0.379409,0.29868 0.925653,0.409 1.689862,0 0.76421,-0.40902 5.096506,-3.01916 5.449006,-3.20752 0.734615,-0.48976 1.307767,-0.38748 0.707703,0.18291 -0.600062,0.57044 -4.160084,3.40396 -4.448011,3.70532 -0.287919,0.3014 -0.653874,0.46285 0.05381,1.06288 a 16.952471,16.952471 0 0 0 2.725848,1.66297 c 0.462837,0.21533 1.307767,0.43324 1.934739,-0.2691 0.626975,-0.70229 3.950187,-3.86946 4.305385,-4.22466 0.355197,-0.35517 1.197453,-0.79111 0.6539,0.19113 -0.543573,0.98218 -2.567108,3.91793 -2.86848,4.35384 -0.301374,0.43592 -0.756135,0.85032 0.08878,1.25933 a 14.353092,14.353092 0 0 0 2.045051,0.76422 c 0.551655,0.18292 1.61454,0 2.263024,-0.73461 a 32.091296,32.091296 0 0 0 3.473908,-4.67403 c 1.009087,-1.61452 2.690886,-3.90982 2.690886,-6.23745 0,-3.03798 -5.736945,-6.28049 -11.199397,-7.39719 -6.38543,-8.1022 -6.83481,-17.33996 -11.011036,-21.67762 -3.385113,-3.76723 -8.290561,-4.94314 -10.986816,-5.35215 7.265344,2.73929 8.748017,4.78165 9.89164,5.91991 1.143608,1.13822 -0.182982,1.04136 -0.920283,0.59199 -0.64043,-0.39286 -9.993881,-5.08844 -15.921873,-8.03226 -5.927983,-2.9438 -7.356825,-4.16006 -7.356825,-4.16006 0,0 0,2.88731 2.628977,6.75946 1.372338,2.01814 2.034298,2.74738 4.235425,3.96366 7.208831,3.99324 13.831062,7.15232 14.484943,7.5075 0.653887,0.3552 0.982172,0.98218 -0.244864,0.46284 -1.151695,-0.48705 -11.013731,-4.70096 -14.646397,-6.24553 -0.234108,-0.0994 -0.686175,0 -0.589305,0.4144 0.212574,0.92838 0.605442,1.59033 1.552626,3.51429 0.844942,1.71677 2.002005,2.58322 3.734929,3.32052 l 12.036254,5.03192 c 0.844939,0.35519 0.721156,0.92567 -0.341742,0.51665 -0.966018,-0.37134 -10.098827,-3.49813 -12.536748,-4.40226 -0.239488,-0.0888 -0.691553,0 -0.01321,1.51496 0.653874,1.47192 2.779662,4.42919 3.514266,5.20415 0.734615,0.77498 0.941812,1.20012 3.229043,1.73024 z m 82.039205,-25.12463 c -5.91991,2.9438 -15.27875,7.63935 -15.92186,8.03222 -0.73463,0.44937 -2.06391,0.55163 -0.92029,-0.59201 1.14362,-1.14362 2.61553,-3.18868 9.89163,-5.91988 -2.69087,0.409 -7.6017,1.59298 -10.99488,5.35483 -4.16816,4.33228 -4.61753,13.57003 -10.9949,21.66417 -5.46247,1.1167 -11.19938,4.63367 -11.19938,7.3972 0,1.6764 0.61353,2.54824 2.46483,5.87147 a 25.482524,25.482524 0 0 0 3.21291,4.46951 c 1.34542,1.40735 2.26301,1.49882 3.15906,1.15709 0.40362,-0.15347 0.71309,-0.36594 1.55802,-0.77495 0.84491,-0.40902 0.38748,-0.82613 0.0888,-1.25936 -0.29871,-0.43322 -2.24149,-3.20751 -2.78506,-4.18966 -0.54356,-0.98216 0.29869,-0.5382 0.65389,-0.19113 0.35518,0.34714 3.6784,3.51428 4.30539,4.22468 0.62696,0.71037 1.47191,0.48973 1.93472,0.26909 a 16.952471,16.952471 0 0 0 2.72587,-1.66295 c 0.70768,-0.60009 0.35519,-0.76421 0.0538,-1.0629 -0.30137,-0.29869 -3.86946,-3.13759 -4.46952,-3.71072 -0.60008,-0.57316 -0.0268,-0.67541 0.70769,-0.18292 0.35518,0.19113 4.6875,2.80118 5.449,3.20754 0.76151,0.40631 1.30778,0.29866 1.68988,0 0.38209,-0.29869 1.8244,-1.22706 2.26301,-1.71679 0.43862,-0.48975 0,-0.62695 -0.3821,-0.84492 -0.38209,-0.21799 -6.21322,-3.37976 -6.70297,-3.67843 -0.48971,-0.29869 0.13714,-0.26908 0.53819,-0.11032 0.40095,0.15871 5.23105,1.55262 6.81327,2.01543 1.58225,0.46287 1.98858,0.38214 2.20652,0.16406 0.21799,-0.21801 1.93475,-2.28997 2.17961,-2.8604 0.24485,-0.57047 -0.0268,-0.68079 -0.60005,-0.87183 -0.57317,-0.19113 -6.21862,-1.41811 -7.22768,-1.66299 -1.00909,-0.24487 0.5032,-0.32019 0.77766,-0.34711 0.27446,-0.0268 5.47052,-0.26909 6.94242,-0.33368 1.47191,-0.0646 1.47191,-0.21799 1.66299,-0.51662 0.19113,-0.29869 2.20648,-3.43357 2.42175,-4.11435 0.21533,-0.68079 -0.16404,-0.80726 -0.60005,-0.76422 -0.43592,0.0432 -8.39283,0.87187 -9.34809,0.92568 -0.95524,0.0538 -0.24487,-0.48972 0.0808,-0.53817 0.3256,-0.0483 6.37735,-1.18669 8.6646,-1.71676 2.28724,-0.53012 2.49443,-0.95262 3.22904,-1.73025 0.73461,-0.77768 2.86041,-3.73224 3.5143,-5.20415 0.67537,-1.52033 0.22601,-1.61453 -0.0139,-1.51495 -2.43791,0.90681 -11.57073,4.03631 -12.53675,4.40227 -1.0629,0.40901 -1.18667,-0.16404 -0.34175,-0.51666 l 12.03089,-5.03192 c 1.7356,-0.73731 2.88997,-1.61453 3.73491,-3.32052 0.94718,-1.92398 1.34542,-2.58863 1.55263,-3.51429 0.0941,-0.41708 -0.3552,-0.51394 -0.58931,-0.41439 -3.62998,1.54994 -13.48931,5.75845 -14.64101,6.24552 -1.22703,0.51662 -0.89873,-0.11033 -0.24487,-0.46286 0.65389,-0.3525 7.26534,-3.51426 14.48493,-7.5075 2.19848,-1.21898 2.8631,-1.9455 4.23545,-3.96365 2.64514,-3.87754 2.64514,-6.76484 2.64514,-6.76484 0,0 -1.43153,1.22702 -7.35954,4.16815 z m -35.04048,20.30257 -6.1029,2.42178 -3.95019,7.71203 7.71201,-3.89638 z m -6.92093,12.37801 c -0.53817,2.07734 -0.62697,3.49812 0.53816,5.94142 1.80829,3.7215 3.69189,7.93539 3.69189,10.34639 0,1.28087 -0.57314,2.61552 -2.04506,4.16814 -2.94382,3.10529 -5.9199,6.48501 -5.9199,6.48501 0,0 -2.95998,-3.37972 -5.919928,-6.48501 -1.471885,-1.55262 -2.045061,-2.88727 -2.045061,-4.16814 0,-2.42176 1.883622,-6.62489 3.678429,-10.35445 1.17051,-2.43792 1.07634,-3.86408 0.53817,-5.94142 -0.40095,-1.5688 -1.035987,-3.29633 -1.035987,-3.29633 1.444987,0.80725 4.768207,2.50787 4.768207,2.50787 0,0 3.32323,-1.68985 4.76822,-2.50787 0.0268,0 -0.61082,1.72753 -1.00908,3.29633 z m -2.52402,0.82339 a 1.614521,1.614521 0 0 0 -2.40564,0 l 1.2028,2.07466 z m 20.65241,26.12566 c -3.59768,0 -7.73895,2.34373 -11.19939,2.34373 a 8.4843081,8.4843081 0 0 1 -4.79514,-1.34542 c -1.41809,-0.87185 -2.23341,-2.64245 -2.23341,-2.64245 l -3.62461,3.97978 -1.93474,-2.04505 c 2.45138,9.03326 8.41974,12.4668 14.55492,12.4668 6.13517,0 6.11903,-2.17154 13.4032,-2.17154 11.68917,0.004 10.18495,10.64776 10.18495,10.64776 0,0 0.40899,-1.51225 0.40899,-4.33227 -0.01,-6.38811 -5.25255,-16.90672 -14.76477,-16.90672 z m 4.49644,12.19502 c -4.44264,9.11397 -11.9071,15.3541 -19.81018,15.3541 -7.90307,0 -12.108909,-7.08508 -22.562925,-7.08508 -12.808537,0 -12.044327,11.83985 -12.044327,14.824 0,2.98418 -2.615526,4.08205 -3.533111,4.08205 -0.917586,0 -2.071977,-0.76421 -2.071977,-0.76421 0,0 0.653883,2.01546 3.215597,2.01546 4.523343,0 5.177228,-5.11265 5.177228,-5.11265 a 5.6508236,5.6508236 0 0 0 1.797503,2.66936 c -1.089811,-4.74134 -0.435928,-12.53409 7.685121,-12.53409 11.936681,0 15.313721,14.55224 30.248061,14.55224 9.8647,0 20.32949,-10.49442 20.32949,-19.53842 0,-9.044 -8.43048,-8.46814 -8.43048,-8.46814 z m 8.53005,-5.55936 1.09787,1.91322 4.26771,-4.74131 v -35.83428 l -5.35483,8.61077 v 30.04354 z m -34.87904,-57.06794 20.18153,7.61519 1.11671,-2.8066 -21.29824,-7.99726 -21.841781,8.50315 1.237806,2.60475 z m -0.0242,94.91235 -16.013344,-17.45032 -2.855011,0.57856 18.916815,20.93764 6.64643,-7.93805 -2.26572,-0.93912 z"
       id="path17"
       style="stroke-width:0.469;stroke:#0000de;stroke-opacity:1;fill:none;stroke-miterlimit:4;stroke-dasharray:none" />
    <text
       xml:space="preserve"
       style="font-style:normal;font-weight:normal;font-size:10.58333302px;line-height:1.25;font-family:sans-serif;letter-spacing:0px;word-spacing:0px;fill:#000000;fill-opacity:1;stroke:none;stroke-width:0.26458332"
       x="53.105656"
       y="163.38541"
       id="text5101"><tspan
         sodipodi:role="line"
         id="tspan5099"
         x="53.105656"
         y="173.04091"
         style="stroke-width:0.26458332" /></text>
    <g
       aria-label="sushimustwrite"
       style="font-style:normal;font-weight:normal;font-size:9.16296196px;line-height:1.25;font-family:sans-serif;letter-spacing:0px;word-spacing:0px;fill:#000000;fill-opacity:1;stroke:none;stroke-width:0.22907406"
       id="text843">
      <path
         d="m 62.342081,117.11125 h 0.763581 v -0.76358 h 3.090972 v 0.80023 h -3.054321 v 0.72693 h 3.054321 v 0.76358 h 0.76358 v 0.80023 h -0.76358 v 0.76358 h -3.854553 v -0.80023 h 3.817901 v -0.72693 h -3.05432 v -0.76358 h -0.763581 z"
         style="font-style:normal;font-variant:normal;font-weight:normal;font-stretch:normal;font-size:6.10864162px;font-family:'Pokemon GB';-inkscape-font-specification:'Pokemon GB';stroke-width:0.22907406"
         id="path902" />
      <path
         d="m 68.450723,116.34767 h 0.800232 v 3.05432 h 2.254089 v -3.05432 h 0.800232 v 3.85455 h -3.090973 v -0.76358 h -0.76358 z"
         style="font-style:normal;font-variant:normal;font-weight:normal;font-stretch:normal;font-size:6.10864162px;font-family:'Pokemon GB';-inkscape-font-specification:'Pokemon GB';stroke-width:0.22907406"
         id="path904" />
      <path
         d="m 74.559365,117.11125 h 0.76358 v -0.76358 h 3.090973 v 0.80023 h -3.054321 v 0.72693 h 3.054321 v 0.76358 h 0.76358 v 0.80023 h -0.76358 v 0.76358 h -3.854553 v -0.80023 h 3.817901 v -0.72693 h -3.054321 v -0.76358 h -0.76358 z"
         style="font-style:normal;font-variant:normal;font-weight:normal;font-stretch:normal;font-size:6.10864162px;font-family:'Pokemon GB';-inkscape-font-specification:'Pokemon GB';stroke-width:0.22907406"
         id="path906" />
      <path
         d="m 80.668005,114.82051 h 0.800232 v 2.29074 h 2.290741 v 0.76358 h 0.76358 v 2.32739 h -0.800232 v -2.29074 h -2.254089 v 2.29074 h -0.800232 z"
         style="font-style:normal;font-variant:normal;font-weight:normal;font-stretch:normal;font-size:6.10864162px;font-family:'Pokemon GB';-inkscape-font-specification:'Pokemon GB';stroke-width:0.22907406"
         id="path908" />
      <path
         d="m 88.303808,117.11125 h 0.800232 v 3.09097 h -0.800232 z m 0,-1.52716 h 0.800232 v 0.80023 h -0.800232 z"
         style="font-style:normal;font-variant:normal;font-weight:normal;font-stretch:normal;font-size:6.10864162px;font-family:'Pokemon GB';-inkscape-font-specification:'Pokemon GB';stroke-width:0.22907406"
         id="path910" />
      <path
         d="m 92.12171,116.34767 h 2.327393 v 0.76358 h 0.726928 v -0.76358 h 1.563812 v 0.76358 h 0.763581 v 3.09097 h -0.800232 v -3.05432 h -1.490509 v 3.05432 h -0.800232 v -3.05432 h -1.490509 v 3.05432 H 92.12171 Z"
         style="font-style:normal;font-variant:normal;font-weight:normal;font-stretch:normal;font-size:6.10864162px;font-family:'Pokemon GB';-inkscape-font-specification:'Pokemon GB';stroke-width:0.22907406"
         id="path912" />
      <path
         d="m 98.993929,116.34767 h 0.800232 v 3.05432 h 2.254089 v -3.05432 h 0.80023 v 3.85455 h -3.090971 v -0.76358 h -0.76358 z"
         style="font-style:normal;font-variant:normal;font-weight:normal;font-stretch:normal;font-size:6.10864162px;font-family:'Pokemon GB';-inkscape-font-specification:'Pokemon GB';stroke-width:0.22907406"
         id="path914" />
      <path
         d="m 105.10257,117.11125 h 0.76358 v -0.76358 h 3.09097 v 0.80023 h -3.05432 v 0.72693 h 3.05432 v 0.76358 h 0.76358 v 0.80023 h -0.76358 v 0.76358 h -3.85455 v -0.80023 h 3.8179 v -0.72693 h -3.05432 v -0.76358 h -0.76358 z"
         style="font-style:normal;font-variant:normal;font-weight:normal;font-stretch:normal;font-size:6.10864162px;font-family:'Pokemon GB';-inkscape-font-specification:'Pokemon GB';stroke-width:0.22907406"
         id="path916" />
      <path
         d="m 111.21121,116.34767 h 1.52716 v -0.76358 h 0.80024 v 0.76358 h 1.52716 v 0.80023 h -1.52716 v 2.25409 h 1.52716 v 0.80023 h -1.56381 v -0.76358 h -0.76359 v -2.29074 h -1.52716 z"
         style="font-style:normal;font-variant:normal;font-weight:normal;font-stretch:normal;font-size:6.10864162px;font-family:'Pokemon GB';-inkscape-font-specification:'Pokemon GB';stroke-width:0.22907406"
         id="path918" />
      <path
         d="m 116.55628,116.34767 h 0.80023 v 3.05432 h 0.72693 v -0.76358 h 0.76358 v -1.52716 h 0.80023 v 1.52716 h 0.76358 v 0.76358 h 0.72693 v -3.05432 h 0.80023 v 3.09097 h -0.76358 v 0.76358 h -0.80023 v -0.76358 h -0.76358 v -0.76358 h -0.72693 v 0.76358 h -0.76358 v 0.76358 h -0.80023 v -0.76358 h -0.76358 z"
         style="font-style:normal;font-variant:normal;font-weight:normal;font-stretch:normal;font-size:6.10864162px;font-family:'Pokemon GB';-inkscape-font-specification:'Pokemon GB';stroke-width:0.22907406"
         id="path920" />
      <path
         d="m 123.4285,116.34767 h 0.80023 v 1.52716 h 0.72693 v -0.76358 h 0.76358 v -0.76358 h 2.32739 v 0.80023 h -2.29074 v 0.76358 h -0.76358 v 0.76358 h -0.76358 v 1.52716 h -0.80023 z"
         style="font-style:normal;font-variant:normal;font-weight:normal;font-stretch:normal;font-size:6.10864162px;font-family:'Pokemon GB';-inkscape-font-specification:'Pokemon GB';stroke-width:0.22907406"
         id="path922" />
      <path
         d="m 131.0643,117.11125 h 0.80023 v 3.09097 h -0.80023 z m 0,-1.52716 h 0.80023 v 0.80023 h -0.80023 z"
         style="font-style:normal;font-variant:normal;font-weight:normal;font-stretch:normal;font-size:6.10864162px;font-family:'Pokemon GB';-inkscape-font-specification:'Pokemon GB';stroke-width:0.22907406"
         id="path924" />
      <path
         d="m 135.64578,116.34767 h 1.52716 v -0.76358 h 0.80023 v 0.76358 h 1.52716 v 0.80023 h -1.52716 v 2.25409 h 1.52716 v 0.80023 h -1.56381 v -0.76358 h -0.76358 v -2.29074 h -1.52716 z"
         style="font-style:normal;font-variant:normal;font-weight:normal;font-stretch:normal;font-size:6.10864162px;font-family:'Pokemon GB';-inkscape-font-specification:'Pokemon GB';stroke-width:0.22907406"
         id="path926" />
      <path
         d="m 141.75442,117.11125 h 0.76358 v -0.76358 h 3.09097 v 0.76358 h 0.76358 v 1.56381 h -3.8179 v 0.72693 h 3.8179 v 0.80023 H 142.518 v -0.76358 h -0.76358 z m 0.80023,0.76358 h 3.01767 v -0.72693 h -3.01767 z"
         style="font-style:normal;font-variant:normal;font-weight:normal;font-stretch:normal;font-size:6.10864162px;font-family:'Pokemon GB';-inkscape-font-specification:'Pokemon GB';stroke-width:0.22907406"
         id="path928" />
    </g>
    <flowRoot
       xml:space="preserve"
       id="flowRoot4514"
       style="fill:black;fill-opacity:1;stroke:none;font-family:sans-serif;font-style:normal;font-weight:normal;font-size:40px;line-height:1.25;letter-spacing:0px;word-spacing:0px"><flowRegion
         id="flowRegion4516"><rect
           id="rect4518"
           width="826.42859"
           height="822.14288"
           x="12.142858"
           y="16.091114" /></flowRegion><flowPara
         id="flowPara4520" /></flowRoot>    <flowRoot
       xml:space="preserve"
       id="flowRoot4522"
       style="fill:black;fill-opacity:1;stroke:none;font-family:sans-serif;font-style:normal;font-weight:normal;font-size:40px;line-height:1.25;letter-spacing:0px;word-spacing:0px"><flowRegion
         id="flowRegion4524"><rect
           id="rect4526"
           width="579.28571"
           height="507.14285"
           x="183.57143"
           y="285.37683" /></flowRegion><flowPara
         id="flowPara4528" /></flowRoot>    <flowRoot
       xml:space="preserve"
       id="flowRoot4530"
       style="fill:black;fill-opacity:1;stroke:none;font-family:sans-serif;font-style:normal;font-weight:normal;font-size:40px;line-height:1.25;letter-spacing:0px;word-spacing:0px"><flowRegion
         id="flowRegion4532"><rect
           id="rect4534"
           width="714.28571"
           height="580"
           x="85"
           y="161.09111" /></flowRegion><flowPara
         id="flowPara4536" /></flowRoot>    <path
       style="fill:none;stroke:#fc0000;stroke-width:0.26458332px;stroke-linecap:butt;stroke-linejoin:miter;stroke-opacity:1"
       d="M 104.558,279.3602 42.228584,213.6119 V 97.349663 H 168.64707 V 213.6119 Z"
       id="path869"
       inkscape:connector-curvature="0" />
  </g>
</svg>
